<svg width="106" height="25" viewBox="0 0 106 25" fill="none" xmlns="http://www.w3.org/2000/svg">
<path d="M6.62618 15.8766L13.3763 9.1265M8.87621 5.75145L9.39709 5.14845C10.4521 4.09355 11.883 3.50098 13.375 3.50108C14.8669 3.50119 16.2977 4.09396 17.3526 5.14901C18.4075 6.20405 19.0001 7.63494 19 9.12689C18.9999 10.6188 18.4071 12.0497 17.3521 13.1045L16.7513 13.6266M11.1262 19.2516L10.6796 19.8524C9.61197 20.9073 8.17154 21.4989 6.67062 21.4989C5.16971 21.4989 3.72928 20.9073 2.66163 19.8524C2.13525 19.3323 1.71734 18.713 1.4321 18.0302C1.14687 17.3474 1 16.6148 1 15.8749C1 15.1349 1.14687 14.4024 1.4321 13.7196C1.71734 13.0368 2.13525 12.4175 2.66163 11.8974L3.25114 11.3765" stroke="#9DD6E9" stroke-width="2" stroke-linecap="round" stroke-linejoin="round"/>
<path d="M38.9141 10.4219C38.6064 8.77832 37.2441 7.86426 35.627 7.87305C33.4297 7.86426 31.8037 9.55176 31.7949 12.6367C31.8037 15.7393 33.4385 17.4092 35.627 17.4004C37.2266 17.4092 38.5801 16.5127 38.9141 14.8867L40.8652 14.9043C40.4609 17.418 38.4131 19.1758 35.6094 19.1758C32.2959 19.1758 29.8789 16.7061 29.8789 12.6367C29.8789 8.56738 32.3135 6.09766 35.6094 6.09766C38.2988 6.09766 40.4346 7.68848 40.8652 10.4219H38.9141ZM46.3418 19.1934C43.6348 19.1934 41.8682 17.2246 41.877 14.2715C41.8682 11.3008 43.6348 9.33203 46.3418 9.33203C49.0312 9.33203 50.7891 11.3008 50.7891 14.2715C50.7891 17.2246 49.0312 19.1934 46.3418 19.1934ZM43.7578 14.2715C43.7578 16.0908 44.5928 17.6289 46.3418 17.6289C48.0645 17.6289 48.8906 16.0908 48.8906 14.2715C48.8906 12.4434 48.0645 10.8877 46.3418 10.8789C44.5928 10.8877 43.7578 12.4434 43.7578 14.2715ZM52.1348 22.5859V9.45508H53.9629V11.002H54.1211C54.4551 10.4043 55.0967 9.33203 56.8633 9.33203C59.1748 9.33203 60.8711 11.1426 60.8711 14.2539C60.8711 17.3301 59.1924 19.1846 56.8809 19.1934C55.1494 19.1846 54.4639 18.1299 54.1211 17.5059H54.0156V22.5859H52.1348ZM53.9805 14.2188C53.9805 16.2227 54.8594 17.585 56.459 17.5938C58.1113 17.585 58.9727 16.1348 58.9727 14.2188C58.9727 12.3379 58.1377 10.9229 56.459 10.9316C54.8418 10.9229 53.9805 12.2324 53.9805 14.2188ZM63.0605 22.5859C62.6738 22.5771 62.2959 22.5684 62.0586 22.5332V20.9688C62.2695 20.9863 62.6387 20.9951 62.9023 21.0039C63.4824 20.9951 63.9658 20.96 64.4141 19.7559L64.6426 19.123L61.1445 9.45508H63.1484L65.5566 16.8555H65.6621L68.0703 9.45508H70.0918L66.1543 20.2656C65.6006 21.7773 64.6338 22.5771 63.0605 22.5859ZM75.1738 19V6.27344H77.1074V17.3301H82.8555V19H75.1738ZM84.1836 19V9.45508H86.0645V19H84.1836ZM83.9375 6.87109C83.9463 6.25586 84.4824 5.76367 85.1328 5.76367C85.7744 5.76367 86.3105 6.25586 86.3105 6.87109C86.3105 7.48633 85.7744 7.9873 85.1328 7.97852C84.4824 7.9873 83.9463 7.48633 83.9375 6.87109ZM89.7305 13.3398V19H87.8496V9.45508H89.6602V11.0195H89.7656C90.2139 9.99121 91.1543 9.33203 92.5781 9.33203C94.5381 9.33203 95.8389 10.5713 95.8301 12.9355V19H93.9668V13.1641C93.958 11.7754 93.2109 10.9492 91.9453 10.9492C90.6533 10.9492 89.7305 11.8193 89.7305 13.3398ZM97.6152 19V6.27344H99.4961V13.4805H99.6543L103.434 9.45508H105.684L101.825 13.5508L105.947 19H103.645L100.401 14.7109L99.4961 15.6074V19H97.6152Z" fill="#9DD6E9"/>
</svg>
